<svg xmlns="http://www.w3.org/2000/svg" version="1.1" xmlns:xlink="http://www.w3.org/1999/xlink" xmlns:svgjs="http://svgjs.dev/svgjs" width="1000" height="1064" viewBox="0 0 1000 1064"><g transform="matrix(1,0,0,1,0.9047339215679813,0.43076923076921503)"><svg viewBox="0 0 232 247" data-background-color="#1b4571" preserveAspectRatio="xMidYMid meet" height="1064" width="1000" xmlns="http://www.w3.org/2000/svg" xmlns:xlink="http://www.w3.org/1999/xlink"><g id="tight-bounds" transform="matrix(1,0,0,1,-0.20989826980377302,-0.09999999999999432)"><svg viewBox="0 0 232.41979653960757 247.2" height="247.2" width="232.41979653960757"><g><svg viewBox="0 0 348.62086285714287 370.7906064" height="247.2" width="232.41979653960757"><g><svg viewBox="0 0 348.62086285714287 370.7906064" height="370.7906064" width="348.62086285714287"><g id="textblocktransform"><svg viewBox="0 0 348.62086285714287 370.7906064" height="370.7906064" width="348.62086285714287" id="textblock"><g><rect width="348.62086285714287" height="247.2" fill="none" stroke-width="9.018103199999999" stroke="#ffffff" data-fill-palette-color="none" data-stroke-palette-color="tertiary"></rect><rect width="348.62086285714287" height="123.5906064" y="247.2" fill="#ffffff" data-fill-palette-color="tertiary"></rect></g><g><svg viewBox="0 0 348.62086285714287 247.2" height="247.2" width="348.62086285714287"><g transform="matrix(1,0,0,1,23.607599999999998,23.607599999999998)"><svg width="301.4056628571429" viewBox="2.049999952316284 -35 52.75 35" height="199.9848" data-palette-color="#ffffff"><path d="M2.05 0L2.05-35 7.55-35 7.55-5 16.6-5 16.6 0 2.05 0ZM19.25 0L19.25-35 34.25-35 34.25-30 24.75-30 24.75-20.75 32.3-20.75 32.3-15.75 24.75-15.75 24.75-5 34.25-5 34.25 0 19.25 0ZM35.95 0L41.64-35 49.09-35 54.8 0 49.3 0 48.3-6.95 48.3-6.85 42.05-6.85 41.05 0 35.95 0ZM42.7-11.6L47.64-11.6 45.2-28.9 45.09-28.9 42.7-11.6Z" opacity="1" transform="matrix(1,0,0,1,0,0)" fill="#ffffff" class="undefined-text-0" data-fill-palette-color="primary" id="text-0"></path></svg></g></svg></g></svg></g></svg></g></svg></g><defs></defs></svg><rect width="232.41979653960757" height="247.2" fill="none" stroke="none" visibility="hidden"></rect></g></svg></g></svg>